<svg version="1.1" xmlns="http://www.w3.org/2000/svg" width="1254" height="1254">

<path d="M0 0 C2.6996844 -0.00434926 5.39904282 -0.01812867 8.09863281 -0.04101562 C33.40440532 -0.23914021 58.29598495 1.44998756 83.14672852 6.36523438 C83.90479797 6.51163361 84.66286743 6.65803284 85.44390869 6.80886841 C150.47198613 19.4260437 214.35373605 46.10345567 265.89672852 88.24023438 C266.82743164 88.98144531 267.75813477 89.72265625 268.71704102 90.48632812 C274.44966181 95.09318356 279.93225716 99.92361769 285.34204102 104.90429688 C287.5161495 106.89224317 289.72095627 108.82556776 291.95922852 110.74023438 C306.86718742 123.84948249 319.5231997 140.3778191 321.10180664 160.90722656 C321.20019957 163.77166552 321.22588199 166.62417177 321.20922852 169.49023438 C321.20076904 171.0147522 321.20076904 171.0147522 321.19213867 172.57006836 C320.81542916 195.92046366 309.703973 215.64774749 293.38110352 231.83349609 C272.65894003 251.4718359 246.81474379 258.91734885 218.75219727 258.58398438 C210.36988257 258.30934198 203.55723059 256.6630119 195.89672852 253.24023438 C194.3846582 252.57121094 194.3846582 252.57121094 192.84204102 251.88867188 C187.0011511 248.99249654 182.52169955 245.2928491 177.79516602 240.84960938 C161.69834586 226.35813247 142.99138701 214.36126393 123.89672852 204.24023438 C123.26089844 203.90040527 122.62506836 203.56057617 121.9699707 203.21044922 C97.27554599 190.111504 70.26990258 180.73619529 42.59594727 176.65039062 C40.73907862 176.36823258 38.88730295 176.05105339 37.04125977 175.70507812 C26.00948347 173.80118528 14.98493267 173.9378143 3.82006836 173.97949219 C0.40403493 173.99021145 -3.01147275 173.9795487 -6.42749023 173.96679688 C-17.51825947 173.95937361 -28.17939028 174.18246268 -39.10327148 176.24023438 C-40.88148741 176.51774287 -42.6601167 176.79261956 -44.43920898 177.06445312 C-72.192844 181.69820263 -98.31488202 190.98118049 -123.10327148 204.24023438 C-123.75457031 204.58521973 -124.40586914 204.93020508 -125.0769043 205.28564453 C-187.16912313 238.39039406 -229.50312763 295.91992537 -251.34155273 361.98632812 C-254.48198606 372.777999 -256.70221887 383.71728352 -258.85327148 394.74023438 C-259.00792877 395.52768036 -259.16258606 396.31512634 -259.32192993 397.12643433 C-259.77074893 399.42366205 -260.21195631 401.72220766 -260.65014648 404.02148438 C-260.78223007 404.70026138 -260.91431366 405.37903839 -261.05039978 406.0783844 C-262.81011548 415.47107842 -263.2756661 424.7913359 -263.34155273 434.33398438 C-263.35366035 436.0514386 -263.35366035 436.0514386 -263.36601257 437.80358887 C-263.37978232 440.22402468 -263.39053592 442.64447933 -263.3984375 445.06494141 C-263.40985867 447.48655079 -263.43014983 449.90813703 -263.45996094 452.32958984 C-263.96003576 493.10105343 -254.62437213 533.0140699 -238.10327148 570.24023438 C-237.76827637 571.00513184 -237.43328125 571.7700293 -237.08813477 572.55810547 C-227.92232291 593.34884944 -215.7362902 612.85182091 -201.10327148 630.24023438 C-200.67997559 630.75231445 -200.25667969 631.26439453 -199.82055664 631.79199219 C-189.04268701 644.82269111 -177.51268501 656.88547489 -164.10327148 667.24023438 C-162.76843756 668.29206584 -161.43381805 669.34416944 -160.09936523 670.39648438 C-151.73106074 676.94711441 -143.3329311 682.9473964 -134.10327148 688.24023438 C-133.49161133 688.59537109 -132.87995117 688.95050781 -132.24975586 689.31640625 C-107.51238404 703.66159574 -81.9165418 714.525574 -53.97827148 720.99023438 C-52.78415649 721.26975952 -52.78415649 721.26975952 -51.56591797 721.55493164 C-48.75343391 722.17501781 -45.93580812 722.71847914 -43.10327148 723.24023438 C-42.42231415 723.36691498 -41.74135681 723.49359558 -41.0397644 723.62411499 C-28.4154041 725.91342236 -16.12215999 726.68846108 -3.30224609 726.57641602 C-0.40686354 726.55266129 2.48759988 726.55590999 5.38305664 726.5625 C16.69749866 726.54590982 27.70412968 725.89104936 38.89672852 724.24023438 C40.50366577 724.00542358 40.50366577 724.00542358 42.14306641 723.76586914 C53.61364506 721.99715238 64.84671182 719.8404011 75.89672852 716.24023438 C77.52428982 715.73098277 79.15189764 715.22187983 80.77954102 714.71289062 C92.53858405 710.97497411 103.76438182 706.55027363 114.89672852 701.24023438 C115.69433594 700.86527832 116.49194336 700.49032227 117.3137207 700.10400391 C141.60885844 688.62572258 162.64896496 673.446704 183.21704102 656.30664062 C188.44914157 652.06809227 193.69083339 648.86371774 199.89672852 646.24023438 C200.78102539 645.84578125 201.66532227 645.45132813 202.57641602 645.04492188 C220.81571795 638.12656597 242.50274409 641.65291722 260.20922852 648.55273438 C281.29882267 658.0761391 297.34096226 673.39755086 305.89672852 695.24023438 C313.64005007 716.37858443 313.28588122 740.00956999 304.15063477 760.75195312 C296.17899506 776.5710637 286.65073473 788.75487019 272.83813477 799.86132812 C269.90193803 802.2360211 267.02500122 804.6708332 264.14672852 807.11523438 C247.61138047 820.89824707 229.5864648 832.61585904 210.89672852 843.24023438 C210.08381348 843.706875 209.27089844 844.17351563 208.43334961 844.65429688 C176.28161933 863.03022371 141.76999574 876.00267093 105.95922852 885.24023438 C104.94818558 885.501194 104.94818558 885.501194 103.91671753 885.76742554 C87.93420817 889.87016842 71.94527713 892.80462406 55.58422852 894.92773438 C54.66649658 895.04737549 53.74876465 895.1670166 52.80322266 895.2902832 C37.42273963 897.15980159 22.05197446 897.40285452 6.57739258 897.37060547 C3.53274531 897.36525374 0.4882463 897.37058153 -2.55639648 897.37695312 C-19.21357557 897.3842015 -35.78673614 897.05545583 -52.29077148 894.61523438 C-53.45511719 894.44483643 -54.61946289 894.27443848 -55.8190918 894.09887695 C-118.90143554 884.41928818 -179.68005595 860.74739839 -232.10327148 824.24023438 C-232.6847998 823.83740234 -233.26632812 823.43457031 -233.86547852 823.01953125 C-256.65740403 807.17628697 -277.3342433 789.0628421 -296.97827148 769.49023438 C-298.31631836 768.15919678 -298.31631836 768.15919678 -299.68139648 766.80126953 C-304.69528893 761.77514349 -309.52015924 756.66182255 -314.10327148 751.24023438 C-314.63952148 750.61068848 -315.17577148 749.98114258 -315.72827148 749.33251953 C-348.95114534 710.08451418 -375.77980832 665.54889591 -393.81591797 617.33520508 C-394.06543213 616.66835693 -394.31494629 616.00150879 -394.57202148 615.31445312 C-394.95112671 614.3007666 -394.95112671 614.3007666 -395.33789062 613.26660156 C-396.06775627 611.33426191 -396.81471034 609.40959288 -397.56811523 607.48632812 C-400.80144743 599.16956946 -403.41514311 590.88022246 -405.5925293 582.21484375 C-406.31696302 579.41406941 -407.11248137 576.63495052 -407.90576172 573.85302734 C-409.00187335 569.99029791 -410.05484616 566.11613425 -411.10327148 562.24023438 C-411.31097168 561.48129883 -411.51867187 560.72236328 -411.73266602 559.94042969 C-416.39282006 542.6479425 -418.77655961 524.9686489 -421.10327148 507.24023438 C-421.1949762 506.55388916 -421.28668091 505.86754395 -421.38116455 505.16040039 C-426.49773892 466.46453449 -426.95003286 424.82575771 -421.10327148 386.24023438 C-421.00145569 385.55348633 -420.89963989 384.86673828 -420.79473877 384.15917969 C-413.73937952 336.58937508 -401.61147466 291.29101575 -382.10327148 247.24023438 C-381.75441895 246.44327148 -381.40556641 245.64630859 -381.04614258 244.82519531 C-375.31395229 231.8019847 -368.27818907 219.51392317 -361.10327148 207.24023438 C-360.62986328 206.42876953 -360.15645508 205.61730469 -359.66870117 204.78125 C-344.69242064 179.2773029 -326.82289274 155.75921923 -306.73217773 134.08789062 C-304.2635359 131.41383431 -301.83535576 128.70863524 -299.41577148 125.99023438 C-293.71173165 119.64677371 -287.76544141 113.70942244 -281.29467773 108.15039062 C-278.72876878 105.91379619 -276.23170718 103.6089937 -273.72827148 101.30273438 C-251.59535938 81.19012896 -226.2343139 64.63293109 -200.10327148 50.24023438 C-199.28584473 49.78293945 -198.46841797 49.32564453 -197.6262207 48.85449219 C-175.69253337 36.62656054 -152.02704657 26.84939896 -128.10327148 19.24023438 C-127.41265625 19.01964355 -126.72204102 18.79905273 -126.01049805 18.57177734 C-121.0713534 17.01494956 -116.10107143 15.59593802 -111.10327148 14.24023438 C-109.80558838 13.88662842 -109.80558838 13.88662842 -108.48168945 13.52587891 C-72.54473689 3.85417586 -37.09574726 0.05079772 0 0 Z " fill="#3B7EFB" transform="translate(651.103271484375,174.759765625)" data-index="1"></path>
<path d="M0 0 C1.20820775 0.74124426 2.41679474 1.48187066 3.62573242 2.22192383 C6.12774974 3.75416699 8.62814948 5.28899937 11.12744141 6.82568359 C16.54647883 10.15445808 21.98659185 13.44845423 27.42556763 16.74450684 C34.57810573 21.0800091 41.72628631 25.42270101 48.8671875 29.77734375 C58.57824361 35.69912231 68.30446515 41.59339379 78.0625 47.4375 C86.95488513 52.76322777 95.8292765 58.11771234 104.6875 63.5 C105.55805527 64.028853 105.55805527 64.028853 106.44619751 64.56838989 C112.39696476 68.18374458 118.34575447 71.80233699 124.29255676 75.42420959 C127.27779327 77.24209016 130.26369793 79.05887048 133.25 80.875 C133.83623138 81.2315567 134.42246277 81.5881134 135.02645874 81.95547485 C142.65096225 86.59028196 150.30627022 91.16849059 158 95.6875 C165.70508116 100.22522397 173.38680936 104.80084668 181.02435303 109.4513855 C182.69558741 110.4669354 184.37140463 111.47493166 186.04736328 112.48266602 C199.20979949 120.53298846 209.05649056 129.63712572 212.875 145.125 C215.89789666 158.3158218 212.26663478 171.23980596 205.34375 182.6484375 C198.54608774 192.04331977 188.06249427 197.34502096 178.1875 203 C176.04649047 204.23761627 173.90586394 205.47589535 171.765625 206.71484375 C170.74404297 207.30507324 169.72246094 207.89530273 168.66992188 208.50341797 C163.42868764 211.54432274 158.24326255 214.67676521 153.05664062 217.80957031 C148.27222563 220.69435411 143.47872944 223.56405425 138.6875 226.4375 C136.50648178 227.74604602 134.32549203 229.05463949 132.14453125 230.36328125 C120.69921875 237.23046875 120.69921875 237.23046875 118.26831055 238.68896484 C116.66424927 239.65143434 115.06024596 240.61400045 113.45629883 241.57666016 C108.9930674 244.25522008 104.528528 246.93157386 100.0625 249.60546875 C82.22571913 260.28903144 64.44917464 271.06998667 46.6953125 281.890625 C35.27405839 288.85129482 23.83046792 295.77201839 12.35302734 302.63964844 C9.79151971 304.17503882 7.23328679 305.71576604 4.67578125 307.2578125 C-35.41251948 331.41912953 -35.41251948 331.41912953 -55.54296875 326.94921875 C-67.42371088 323.15672769 -75.75562844 315.60519927 -82.125 305.125 C-86.24680816 297.1032134 -87.8546716 290.26032501 -87.73973083 281.28898621 C-87.74541409 280.16069517 -87.75109735 279.03240413 -87.75695282 277.86992246 C-87.76978004 274.12277556 -87.74713109 270.37672515 -87.72436523 266.62963867 C-87.7262307 263.92987391 -87.73006665 261.23017747 -87.73631287 258.53042603 C-87.74694145 251.9803237 -87.73110846 245.43054502 -87.7061746 238.88049199 C-87.67814688 231.24608481 -87.67690128 223.61174182 -87.67673159 215.97729174 C-87.67554638 202.35531626 -87.65063312 188.7334888 -87.61206055 175.11157227 C-87.57468348 161.90322087 -87.55346208 148.69497706 -87.55053711 135.48657227 C-87.5503543 134.67225899 -87.55017149 133.85794571 -87.54998314 133.01895627 C-87.54980417 132.2060271 -87.5496252 131.39309793 -87.5494408 130.55553454 C-87.54907537 128.91862849 -87.548703 127.28172244 -87.54832363 125.6448164 C-87.54804536 124.43382159 -87.54804536 124.43382159 -87.54776147 123.19836224 C-87.54418978 110.59296928 -87.52574117 97.98759285 -87.50583039 85.38221672 C-87.49881596 80.81916067 -87.49402861 76.25610853 -87.49086904 71.69304826 C-87.48581575 64.45821407 -87.47436182 57.22345451 -87.44956874 49.98865869 C-87.43836547 46.68447639 -87.43129084 43.3803813 -87.43070221 40.0761776 C-87.42944486 36.49271841 -87.41590196 32.90951106 -87.39915466 29.32609558 C-87.40277729 27.7639424 -87.40277729 27.7639424 -87.4064731 26.17023057 C-87.31538873 13.73698733 -83.01238633 3.32794621 -74.4140625 -5.76953125 C-50.26876084 -27.97826435 -23.81949595 -14.7317295 0 0 Z " fill="#FC5247" transform="translate(625.125,470.875)" data-index="2"></path>




<path d="M0 0 C3.50932283 0.00010202 7.01844518 -0.0136274 10.52772045 -0.03077221 C13.93457954 -0.0446859 17.34140401 -0.04398319 20.74829102 -0.04516602 C21.98717575 -0.05235153 23.22606049 -0.05953705 24.50248718 -0.06694031 C32.51212289 -0.04620886 40.14000153 0.74098513 48.01782227 2.18530273 C48.01782227 2.51530273 48.01782227 2.84530273 48.01782227 3.18530273 C47.09549805 3.16790039 47.09549805 3.16790039 46.15454102 3.15014648 C44.94217773 3.13661133 44.94217773 3.13661133 43.70532227 3.12280273 C42.90481445 3.11120117 42.10430664 3.09959961 41.27954102 3.08764648 C38.84920893 3.08872419 38.84920893 3.08872419 36.01782227 4.18530273 C33.39282227 4.31030273 33.39282227 4.31030273 31.01782227 4.18530273 C30.68782227 3.85530273 30.35782227 3.52530273 30.01782227 3.18530273 C28.56826613 3.02634111 27.11133931 2.93386201 25.65454102 2.86889648 C24.24906006 2.80581299 24.24906006 2.80581299 22.81518555 2.74145508 C21.78893066 2.7022998 20.76267578 2.66314453 19.70532227 2.62280273 C18.65328613 2.58106934 17.60125 2.53933594 16.51733398 2.49633789 C7.89296611 2.18737896 -0.72763327 2.07873119 -9.35717773 2.06030273 C-10.58090088 2.05571045 -11.80462402 2.05111816 -13.06542969 2.04638672 C-14.20069092 2.04840088 -15.33595215 2.05041504 -16.50561523 2.05249023 C-17.51543457 2.05361816 -18.52525391 2.05474609 -19.56567383 2.0559082 C-21.99357542 2.02485607 -21.99357542 2.02485607 -23.98217773 3.18530273 C-25.60120303 3.23519173 -27.22214997 3.22870327 -28.84155273 3.19311523 C-35.01133278 3.13878253 -41.08718292 3.540461 -47.23217773 4.06030273 C-48.78678711 4.17825195 -48.78678711 4.17825195 -50.37280273 4.29858398 C-55.84400039 4.75219093 -60.71333548 5.58067283 -65.98217773 7.18530273 C-69.07399261 7.7507674 -72.18309212 8.18112433 -75.29467773 8.62280273 C-81.15202982 9.5002649 -86.71440759 10.50704896 -92.34155273 12.39233398 C-95.0725798 13.2124501 -97.81653844 13.79612434 -100.60961914 14.36279297 C-118.97342851 18.1237832 -137.57174685 23.77256159 -154.77661133 31.23803711 C-157.64351194 32.46933823 -160.52599803 33.66156289 -163.40795898 34.85717773 C-165.76634384 35.84080515 -168.12441438 36.82518651 -170.48217773 37.81030273 C-171.6058374 38.27807129 -172.72949707 38.74583984 -173.88720703 39.2277832 C-179.48811503 41.59062027 -184.77294678 44.05717893 -189.98217773 47.18530273 C-192.27001037 48.4008797 -194.56184035 49.60895689 -196.85717773 50.81030273 C-223.9702368 65.17913187 -249.49837613 82.39738968 -271.94702148 103.36499023 C-274.31832568 105.57781798 -276.72085712 107.74554442 -279.16967773 109.87280273 C-279.78069336 110.40389648 -280.39170898 110.93499023 -281.02124023 111.48217773 C-281.66834961 112.04420898 -282.31545898 112.60624023 -282.98217773 113.18530273 C-288.44370398 117.93596366 -293.60086695 122.68398362 -298.27124023 128.22045898 C-300.08995442 130.30907368 -302.00714042 132.24431778 -303.98217773 134.18530273 C-307.86250343 138.02119722 -311.43662208 142.04097203 -314.98217773 146.18530273 C-315.96991955 147.32118871 -316.95825095 148.45656213 -317.94702148 149.59155273 C-319.02147629 150.83093146 -320.09569355 152.07051616 -321.16967773 153.31030273 C-321.68111328 153.89634277 -322.19254883 154.48238281 -322.71948242 155.08618164 C-325.77382427 158.62893851 -328.41469903 162.26536202 -330.98217773 166.18530273 C-331.95698954 167.35263987 -332.95388069 168.50229427 -333.98217773 169.62280273 C-335.99553037 171.91438249 -337.63515577 174.13864081 -339.10717773 176.81030273 C-340.84817058 179.94408986 -342.74277588 182.4025166 -344.98217773 185.18530273 C-349.52772217 191.60795459 -353.63957411 198.17008618 -357.31030273 205.12670898 C-358.54577878 207.38693736 -359.8119695 209.58011276 -361.15405273 211.77514648 C-368.14034409 223.23385733 -373.90862991 235.14708236 -379.60571289 247.2902832 C-381.66521502 251.62188595 -383.81387274 255.90732761 -385.98217773 260.18530273 C-386.64217773 260.18530273 -387.30217773 260.18530273 -387.98217773 260.18530273 C-385.99161889 253.7261424 -383.52981004 247.65122088 -380.60717773 241.56030273 C-380.17655029 240.66077881 -379.74592285 239.76125488 -379.30224609 238.83447266 C-374.03085757 228.00324881 -368.07463489 217.57120364 -361.98217773 207.18530273 C-361.51166992 206.37963867 -361.04116211 205.57397461 -360.55639648 204.74389648 C-345.57796839 179.23308667 -327.70662636 155.70949475 -307.61108398 134.03295898 C-305.14244215 131.35890267 -302.71426201 128.65370359 -300.29467773 125.93530273 C-294.5906379 119.59184207 -288.64434766 113.6544908 -282.17358398 108.09545898 C-279.60767503 105.85886455 -277.11061343 103.55406206 -274.60717773 101.24780273 C-252.47426563 81.13519732 -227.11322015 64.57799945 -200.98217773 50.18530273 C-200.16475098 49.72800781 -199.34732422 49.27071289 -198.50512695 48.79956055 C-176.57143962 36.5716289 -152.90595282 26.79446732 -128.98217773 19.18530273 C-128.2915625 18.96471191 -127.60094727 18.74412109 -126.8894043 18.5168457 C-121.95025965 16.96001792 -116.97997768 15.54100638 -111.98217773 14.18530273 C-110.68449463 13.83169678 -110.68449463 13.83169678 -109.3605957 13.47094727 C-73.10378541 3.71316099 -37.41404928 -0.00576531 0 0 Z " fill="#05A9E4" transform="translate(651.982177734375,174.814697265625)" data-index="7"></path>
<path d="M0 0 C-0.33 0.66 -0.66 1.32 -1 2 C-1.92039062 1.95359375 -2.84078125 1.9071875 -3.7890625 1.859375 C-13.57775393 1.58026771 -25.12788981 1.4522271 -32.69921875 8.51953125 C-33.45847656 9.33808594 -34.21773437 10.15664063 -35 11 C-36.051875 11.66 -37.10375 12.32 -38.1875 13 C-41.31880487 15.22670568 -41.81847182 16.45541545 -43 20 C-44 21 -45 22 -46 23 C-49.29363423 28.92854162 -51.34281776 33.32373705 -50 40 C-49.90836935 42.35275171 -49.86996357 44.70797002 -49.875 47.0625 C-49.87242187 48.27035156 -49.86984375 49.47820312 -49.8671875 50.72265625 C-50 54 -50 54 -50.5703125 56.12109375 C-51.1507522 58.06525327 -51.1507522 58.06525327 -50.53515625 60.29272461 C-49.99951911 63.00243273 -49.87073719 65.43720249 -49.8671875 68.1953125 C-49.86589844 69.15824219 -49.86460937 70.12117187 -49.86328125 71.11328125 C-49.86714844 72.10714844 -49.87101563 73.10101562 -49.875 74.125 C-49.87113281 75.12660156 -49.86726562 76.12820313 -49.86328125 77.16015625 C-49.86457031 78.12050781 -49.86585938 79.08085938 -49.8671875 80.0703125 C-49.86831543 80.94445801 -49.86944336 81.81860352 -49.87060547 82.71923828 C-50 85 -50 85 -51 88 C-50.67210969 90.00089956 -50.3375068 92.00070005 -50 94 C-49.83944691 97.1024241 -49.83612722 100.20245644 -49.83203125 103.30859375 C-49.82870285 104.19354019 -49.82537445 105.07848663 -49.82194519 105.99024963 C-49.81690007 107.85522952 -49.81453612 109.72021837 -49.81469727 111.58520508 C-49.81250979 114.42479419 -49.79432568 117.26399507 -49.77539062 120.10351562 C-49.77245632 121.92187368 -49.77047177 123.74023357 -49.76953125 125.55859375 C-49.76234573 126.40046738 -49.75516022 127.242341 -49.74775696 128.10972595 C-49.76701522 133.12333468 -50.3896839 137.24563845 -52 142 C-51.34 142 -50.68 142 -50 142 C-49.975241 146.48404564 -49.95711201 150.96805481 -49.94506836 155.45214844 C-49.94004635 156.97689507 -49.9332275 158.50163691 -49.92456055 160.02636719 C-49.91240151 162.22071519 -49.90675032 164.4149994 -49.90234375 166.609375 C-49.89710693 167.92905273 -49.89187012 169.24873047 -49.88647461 170.60839844 C-50 174 -50 174 -50.4942627 175.95983887 C-51.01201277 178.0484599 -51.15650372 179.88616376 -51.20532227 182.03417969 C-51.22526749 182.81468689 -51.24521271 183.59519409 -51.26576233 184.39935303 C-51.28247482 185.23178528 -51.29918732 186.06421753 -51.31640625 186.921875 C-51.33718735 187.78186096 -51.35796844 188.64184692 -51.37937927 189.52789307 C-51.44463739 192.26851598 -51.50364917 195.00923275 -51.5625 197.75 C-51.60570781 199.6106867 -51.64932282 201.47136398 -51.69335938 203.33203125 C-51.80029442 207.88792523 -51.90162851 212.4439134 -52 217 C-52.33 217 -52.66 217 -53 217 C-53.14034308 192.82556447 -53.24605585 168.65119026 -53.31087303 144.47642899 C-53.34177266 133.25091154 -53.38387881 122.02564764 -53.45263672 110.80029297 C-53.51255784 101.01293505 -53.55117743 91.22576082 -53.56453097 81.43822455 C-53.5723332 76.2587177 -53.59058888 71.07973624 -53.63438034 65.90039825 C-53.67532231 61.01819193 -53.68762565 56.13672381 -53.67864609 51.25436211 C-53.68028712 49.46942307 -53.69209303 47.68445753 -53.71523285 45.89966774 C-53.88819741 31.86177573 -51.30846975 21.54761258 -41.25390625 11.03515625 C-29.55748105 0.4739127 -15.39433631 -3.24091291 0 0 Z " fill="#F98D2C" transform="translate(592,454)" data-index="8"></path>
<path d="M0 0 C0.99 0.495 0.99 0.495 2 1 C0.33146426 2.90689799 -1.33737749 4.81351488 -3.0078125 6.71875 C-4.25860579 8.15103094 -5.5042146 9.58787353 -6.7421875 11.03125 C-9.71547498 14.48409998 -12.75547032 17.79923084 -16 21 C-19.88032569 24.83589448 -23.45444435 28.85566929 -27 33 C-27.98774181 34.13588598 -28.97607322 35.2712594 -29.96484375 36.40625 C-31.03929856 37.64562872 -32.11351582 38.88521343 -33.1875 40.125 C-33.69893555 40.71104004 -34.21037109 41.29708008 -34.73730469 41.90087891 C-37.79164653 45.44363578 -40.4325213 49.08005928 -43 53 C-43.9748118 54.16733713 -44.97170296 55.31699154 -46 56.4375 C-48.01335263 58.72907976 -49.65297803 60.95333808 -51.125 63.625 C-52.86599285 66.75878713 -54.76059814 69.21721387 -57 72 C-61.54554443 78.42265185 -65.65739637 84.98478345 -69.328125 91.94140625 C-70.56360104 94.20163462 -71.82979177 96.39481003 -73.171875 98.58984375 C-80.15816635 110.04855459 -85.92645218 121.96177963 -91.62353516 134.10498047 C-93.68303729 138.43658321 -95.83169501 142.72202487 -98 147 C-98.66 147 -99.32 147 -100 147 C-98.00944116 140.54083967 -95.5476323 134.46591815 -92.625 128.375 C-92.19437256 127.47547607 -91.76374512 126.57595215 -91.32006836 125.64916992 C-86.04867984 114.81794608 -80.09245715 104.38590091 -74 94 C-73.52949219 93.19433594 -73.05898438 92.38867188 -72.57421875 91.55859375 C-57.59579065 66.04778394 -39.72444863 42.52419202 -19.62890625 20.84765625 C-17.16026441 18.17359994 -14.73208428 15.46840086 -12.3125 12.75 C-8.36007091 8.34097261 -4.23795613 4.13402805 0 0 Z " fill="#0392E6" transform="translate(364,288)" data-index="9"></path>
<path d="M0 0 C12.61554503 15.13865403 16.53608928 35.17818942 15.25244141 54.43652344 C12.86650214 78.66511371 1.15754329 101.35186914 -17.46484375 117.08203125 C-19.32234258 118.60374119 -21.18728018 120.11640488 -23.05859375 121.62109375 C-25.99479048 123.99578673 -28.8717273 126.43059882 -31.75 128.875 C-36.36437469 132.72936003 -41.09136829 136.37932555 -45.9375 139.9375 C-46.56430664 140.39817871 -47.19111328 140.85885742 -47.83691406 141.33349609 C-51.13654509 143.73056532 -54.45954657 145.96440723 -58 148 C-56.54742261 144.33283741 -54.76538946 142.91553575 -51.4375 140.875 C-48.12890878 138.98528237 -48.12890878 138.98528237 -46 136 C-45.01 135.67 -44.02 135.34 -43 135 C-42.319375 134.319375 -41.63875 133.63875 -40.9375 132.9375 C-39.9784375 131.9784375 -39.9784375 131.9784375 -39 131 C-38.34 131 -37.68 131 -37 131 C-37 130.34 -37 129.68 -37 129 C-34.525 128.01 -34.525 128.01 -32 127 C-32 126.34 -32 125.68 -32 125 C-31.01 125 -30.02 125 -29 125 C-28.505 123.515 -28.505 123.515 -28 122 C-27.34 122 -26.68 122 -26 122 C-25.938125 121.38125 -25.87625 120.7625 -25.8125 120.125 C-25.544375 119.42375 -25.27625 118.7225 -25 118 C-23.3523962 117.28752268 -21.68236471 116.62599617 -20 116 C-18.64748503 114.68612831 -17.31054623 113.35573748 -16 112 C-15.34 112 -14.68 112 -14 112 C-13.76410156 111.44441406 -13.52820313 110.88882813 -13.28515625 110.31640625 C-11.15133686 106.47034273 -7.99355919 103.52914697 -4.99609375 100.33984375 C-2.82003879 98.08532807 -2.82003879 98.08532807 -2 95 C-1.34 95 -0.68 95 0 95 C0.268125 93.948125 0.53625 92.89625 0.8125 91.8125 C2 88 2 88 3.4453125 85.62109375 C9.05181558 76.16892399 11.28089198 63.88696092 12 53 C12.06574219 52.00613281 12.13148438 51.01226563 12.19921875 49.98828125 C12.72109456 34.4939685 9.12915726 20.70211472 1.609375 7.22265625 C0 4 0 4 0 0 Z " fill="#A333E8" transform="translate(947,853)" data-index="10"></path>
<path d="M0 0 C3.50932283 0.00010202 7.01844518 -0.0136274 10.52772045 -0.03077221 C13.93457954 -0.0446859 17.34140401 -0.04398319 20.74829102 -0.04516602 C21.98717575 -0.05235153 23.22606049 -0.05953705 24.50248718 -0.06694031 C32.51212289 -0.04620886 40.14000153 0.74098513 48.01782227 2.18530273 C48.01782227 2.51530273 48.01782227 2.84530273 48.01782227 3.18530273 C47.09549805 3.16790039 47.09549805 3.16790039 46.15454102 3.15014648 C44.94217773 3.13661133 44.94217773 3.13661133 43.70532227 3.12280273 C42.90481445 3.11120117 42.10430664 3.09959961 41.27954102 3.08764648 C38.84920893 3.08872419 38.84920893 3.08872419 36.01782227 4.18530273 C33.39282227 4.31030273 33.39282227 4.31030273 31.01782227 4.18530273 C30.68782227 3.85530273 30.35782227 3.52530273 30.01782227 3.18530273 C28.56826613 3.02634111 27.11133931 2.93386201 25.65454102 2.86889648 C24.71755371 2.82684082 23.78056641 2.78478516 22.81518555 2.74145508 C21.78893066 2.7022998 20.76267578 2.66314453 19.70532227 2.62280273 C18.65328613 2.58106934 17.60125 2.53933594 16.51733398 2.49633789 C7.89296611 2.18737896 -0.72763327 2.07873119 -9.35717773 2.06030273 C-11.19276245 2.05341431 -11.19276245 2.05341431 -13.06542969 2.04638672 C-14.20069092 2.04840088 -15.33595215 2.05041504 -16.50561523 2.05249023 C-17.51543457 2.05361816 -18.52525391 2.05474609 -19.56567383 2.0559082 C-21.99357542 2.02485607 -21.99357542 2.02485607 -23.98217773 3.18530273 C-25.60120303 3.23519173 -27.22214997 3.22870327 -28.84155273 3.19311523 C-35.01133278 3.13878253 -41.08718292 3.540461 -47.23217773 4.06030273 C-48.26858398 4.13893555 -49.30499023 4.21756836 -50.37280273 4.29858398 C-55.84400039 4.75219093 -60.71333548 5.58067283 -65.98217773 7.18530273 C-69.07399261 7.7507674 -72.18309212 8.18112433 -75.29467773 8.62280273 C-81.12416582 9.49609073 -86.66761285 10.48920099 -92.26733398 12.36889648 C-96.89486803 13.76048586 -101.63299977 14.68221813 -106.35571289 15.69360352 C-111.38451079 16.78580715 -116.26784731 18.07644366 -121.13452148 19.76733398 C-122.98217773 20.18530273 -122.98217773 20.18530273 -125.98217773 19.18530273 C-86.15078102 3.33689489 -42.41449655 -0.00653586 0 0 Z " fill="#07BFE9" transform="translate(651.982177734375,174.814697265625)" data-index="11"></path>
<path d="M0 0 C-1 3 -1 3 -2.79077148 4.11914062 C-3.55977783 4.46138672 -4.32878418 4.80363281 -5.12109375 5.15625 C-5.97509766 5.53910156 -6.82910156 5.92195312 -7.70898438 6.31640625 C-8.60939453 6.70699219 -9.50980469 7.09757813 -10.4375 7.5 C-11.7359082 8.08587891 -11.7359082 8.08587891 -13.06054688 8.68359375 C-18.16646699 10.94190838 -23.23253326 12.72150488 -28.60107422 14.23876953 C-30.94157535 14.98146061 -33.04953006 15.90094103 -35.26171875 16.9609375 C-41.20126472 19.70186519 -47.47519985 21.09402209 -53.8125 22.625 C-55.00681641 22.9240625 -56.20113281 23.223125 -57.43164062 23.53125 C-75.66416897 28.01742464 -75.66416897 28.01742464 -83.28051758 27.98681641 C-85.91520165 27.68064479 -85.91520165 27.68064479 -87 29 C-89.52309429 29.07234679 -92.03148447 28.99635022 -94.5546875 28.9375 C-97.14011009 28.88454506 -97.14011009 28.88454506 -100 30 C-102.8416301 30.10916645 -105.65800263 30.16404638 -108.5 30.16796875 C-109.74813477 30.17296135 -109.74813477 30.17296135 -111.02148438 30.17805481 C-112.7799423 30.18311508 -114.53840981 30.18546341 -116.296875 30.18530273 C-118.98974348 30.18749166 -121.68220387 30.20566335 -124.375 30.22460938 C-126.08333193 30.22754297 -127.79166581 30.22952799 -129.5 30.23046875 C-130.30630859 30.23765427 -131.11261719 30.24483978 -131.94335938 30.25224304 C-135.82111442 30.23635444 -137.69827443 30.20115038 -141 28 C-139.81672119 27.98018066 -138.63344238 27.96036133 -137.41430664 27.93994141 C-132.93918872 27.8627066 -128.46434742 27.77419333 -123.98950195 27.68261719 C-122.06865987 27.64480597 -120.1477584 27.609879 -118.22680664 27.578125 C-93.5617974 27.1656451 -68.56212874 24.67669356 -45 17 C-43.3724387 16.4907484 -41.74483088 15.98164546 -40.1171875 15.47265625 C-27.56674769 11.47980713 -15.33706199 6.84542756 -3.62890625 0.76953125 C-2 0 -2 0 0 0 Z " fill="#6C43DD" transform="translate(772,874)" data-index="12"></path>
<path d="M0 0 C4.34390799 2.75200106 8.13384271 5.777002 11.875 9.3125 C12.93157229 10.29764709 13.98886399 11.2820232 15.046875 12.265625 C15.55412109 12.73806641 16.06136719 13.21050781 16.58398438 13.69726562 C18.39433084 15.36278437 20.25417031 16.96545026 22.125 18.5625 C37.01864932 31.63306776 49.63006664 48.18434289 51.20507812 68.66699219 C51.30347105 71.53143114 51.32915347 74.3839374 51.3125 77.25 C51.30404053 78.77451782 51.30404053 78.77451782 51.29541016 80.32983398 C51.02705447 96.96390105 45.88218003 113.12649322 35 126 C34.01 126.495 34.01 126.495 33 127 C34.13199085 120.92841272 35.2767603 118.22605657 40 114 C40 113.34 40 112.68 40 112 C40.66 112 41.32 112 42 112 C42.28746094 110.989375 42.57492187 109.97875 42.87109375 108.9375 C43.57336291 106.47244245 44.29599437 104.0170753 45.03515625 101.5625 C47.61942519 92.60108071 48.73466564 84.36409192 49 75 C49.0515625 74.20722656 49.103125 73.41445313 49.15625 72.59765625 C49.46664215 66.06648814 47.2474959 60.4949918 44.375 54.75 C43 52 43 52 42.5625 49.5625 C42.00778681 47.03547323 41.24011069 45.51691809 39.9375 43.3125 C38 40 38 40 38 38 C37.01 37.67 36.02 37.34 35 37 C34.505 36.05125 34.01 35.1025 33.5 34.125 C30.07967499 27.71022702 23.64650251 21.12758342 17.40234375 17.484375 C14.54831886 15.72091247 13.08208671 13.61452873 11 11 C8.15908637 8.83360497 5.2293193 6.86108655 2.265625 4.8671875 C1.51796875 4.25101562 0.7703125 3.63484375 0 3 C0 2.01 0 1.02 0 0 Z " fill="#25D8DE" transform="translate(921,267)" data-index="13"></path>
<path d="M0 0 C-2.60973587 2.60973587 -4.10259039 2.44743285 -7.75 2.875 C-40.42414233 7.23377051 -70.87868011 16.42330632 -100 32 C-100.97694824 32.51747803 -100.97694824 32.51747803 -101.97363281 33.04541016 C-111.36710993 38.0535853 -120.17303861 43.67369604 -128.8671875 49.8125 C-132 52 -132 52 -134 53 C-132.70401211 50.10895008 -131.50703864 47.96981607 -129 46 C-125.8125 44.8125 -125.8125 44.8125 -123 44 C-123 43.34 -123 42.68 -123 42 C-122.36835938 41.6596875 -121.73671875 41.319375 -121.0859375 40.96875 C-115.78204629 38.09517205 -110.52860399 35.155251 -105.3125 32.125 C-94.59839651 25.97212764 -83.69734556 20.51246158 -72.1875 16 C-71.41631836 15.69698975 -70.64513672 15.39397949 -69.85058594 15.08178711 C-66.77361586 13.90916552 -64.32087232 13 -61 13 C-60.67 12.34 -60.34 11.68 -60 11 C-58.35 11 -56.7 11 -55 11 C-54.67 10.34 -54.34 9.68 -54 9 C-50.53107298 7.21297699 -47.28426438 6.7934917 -43.45043945 6.34155273 C-38.46798652 5.64707713 -33.55164575 4.57075745 -28.625 3.5625 C-27.5525 3.34529297 -26.48 3.12808594 -25.375 2.90429688 C-24.31539062 2.68966797 -23.25578125 2.47503906 -22.1640625 2.25390625 C-20.61066162 1.93969727 -20.61066162 1.93969727 -19.02587891 1.61914062 C-17.05234758 1.21532624 -15.08054069 0.8029619 -13.11083984 0.38085938 C-12.2286377 0.19458984 -11.34643555 0.00832031 -10.4375 -0.18359375 C-9.66535156 -0.35044678 -8.89320313 -0.5172998 -8.09765625 -0.68920898 C-5.24356005 -1.11207496 -2.77324792 -0.72980208 0 0 Z " fill="#07B0E7" transform="translate(628,347)" data-index="14"></path>
<path d="M0 0 C1.55616579 2.9583138 2.25150635 4.93131816 2.25878906 8.2902832 C2.26509338 9.12827957 2.27139771 9.96627594 2.27789307 10.82966614 C2.2738446 11.72763412 2.26979614 12.62560211 2.265625 13.55078125 C2.26753845 14.48294968 2.2694519 15.4151181 2.27142334 16.37553406 C2.27278325 18.34663157 2.26910035 20.3177381 2.26074219 22.28881836 C2.25007617 25.29106032 2.26062539 28.29269896 2.2734375 31.29492188 C2.27211516 33.21354298 2.26955124 35.13216371 2.265625 37.05078125 C2.26967346 37.94267654 2.27372192 38.83457184 2.27789307 39.75349426 C2.23970806 44.88648004 1.66181009 49.13627628 0 54 C0.66 54 1.32 54 2 54 C2.024759 58.48404564 2.04288799 62.96805481 2.05493164 67.45214844 C2.05995365 68.97689507 2.0667725 70.50163691 2.07543945 72.02636719 C2.08759849 74.22071519 2.09324968 76.4149994 2.09765625 78.609375 C2.10289307 79.92905273 2.10812988 81.24873047 2.11352539 82.60839844 C2 86 2 86 1.5057373 87.95983887 C0.98798723 90.0484599 0.84349628 91.88616376 0.79467773 94.03417969 C0.77473251 94.81468689 0.75478729 95.59519409 0.73423767 96.39935303 C0.71752518 97.23178528 0.70081268 98.06421753 0.68359375 98.921875 C0.66281265 99.78186096 0.64203156 100.64184692 0.62062073 101.52789307 C0.55536261 104.26851598 0.49635083 107.00923275 0.4375 109.75 C0.39429219 111.6106867 0.35067718 113.47136398 0.30664062 115.33203125 C0.19970558 119.88792523 0.09837149 124.4439134 0 129 C-0.33 129 -0.66 129 -1 129 C-1.02342293 113.80469285 -1.04102515 98.60938654 -1.05181217 83.41406536 C-1.05695524 76.35766176 -1.06395979 69.30126942 -1.07543945 62.24487305 C-1.08652038 55.43028978 -1.09229089 48.61571819 -1.09487724 41.80112648 C-1.09671954 39.20613229 -1.10031704 36.61113872 -1.10573006 34.01614952 C-1.11302862 30.37102268 -1.11398723 26.72594357 -1.11352539 23.08081055 C-1.11712067 22.01697144 -1.12071594 20.95313232 -1.12442017 19.85705566 C-1.1153225 13.18606785 -0.71878969 6.6321181 0 0 Z " fill="#F97E36" transform="translate(540,542)" data-index="15"></path>
<path d="M0 0 C1.99110401 0.38290462 3.99100513 0.72604615 6 1 C6 1.33 6 1.66 6 2 C0.61630684 2.16492714 -3.6580855 1.76046522 -8.875 0.25 C-36.302701 -6.90772433 -63.83529803 -6.80027476 -92 -7 C-92 -7.66 -92 -8.32 -92 -9 C-63.98602364 -11.08614718 -25.71522151 -13.46165958 0 0 Z " fill="#0BB8DF" transform="translate(721,355)" data-index="16"></path>
<path d="M0 0 C1.875 0.1875 1.875 0.1875 4 1 C5.25 3.5625 5.25 3.5625 6 6 C6.66 6 7.32 6 8 6 C8.12375 6.928125 8.12375 6.928125 8.25 7.875 C8.78131326 10.17469437 8.78131326 10.17469437 10.9375 10.9375 C13.75466437 12.3887665 13.85151249 14.12878124 15 17 C17.01669827 18.13350534 17.01669827 18.13350534 19 19 C19.33 19.99 19.66 20.98 20 22 C20.66 22 21.32 22 22 22 C22.37125 22.680625 22.7425 23.36125 23.125 24.0625 C25.74827231 28.17229329 29.30177564 30.87473998 33 34 C35.5 36.3125 35.5 36.3125 37 38 C37 38.66 37 39.32 37 40 C37.66 40 38.32 40 39 40 C39 40.66 39 41.32 39 42 C39.59554687 42.25652344 40.19109375 42.51304687 40.8046875 42.77734375 C43.19696371 44.10969687 44.42728199 45.43368605 46.125 47.5625 C48.20903634 50.21025666 48.20903634 50.21025666 51 52 C51 52.66 51 53.32 51 54 C51.5259375 54.21527344 52.051875 54.43054688 52.59375 54.65234375 C55.93440775 56.52332901 58.6490558 59.03572248 61.5 61.5625 C67.08489672 66.45242678 72.82394494 70.95022707 78.8671875 75.2578125 C79.57101562 75.83273437 80.27484375 76.40765625 81 77 C81 77.66 81 78.32 81 79 C77.03336359 77.28469777 73.79756119 74.66497085 70.4375 72 C69.82052246 71.51305664 69.20354492 71.02611328 68.56787109 70.52441406 C63.76311234 66.69300643 59.19062831 62.67614859 54.6953125 58.484375 C52.62817467 56.57901317 50.53695522 54.7446273 48.40234375 52.91796875 C43.36841353 48.52865601 38.66437446 43.81456441 33.9543457 39.0847168 C32.4400742 37.56508332 30.9205257 36.05087483 29.40039062 34.53710938 C24.05750007 29.19880073 18.85694816 23.78965736 14 18 C13.39099854 17.27643311 12.78199707 16.55286621 12.15454102 15.80737305 C10.28061674 13.56708875 8.41968582 11.31667157 6.5625 9.0625 C5.92634766 8.29615234 5.29019531 7.52980469 4.63476562 6.74023438 C3.73467773 5.6487207 3.73467773 5.6487207 2.81640625 4.53515625 C2.27443604 3.879104 1.73246582 3.22305176 1.17407227 2.54711914 C0 1 0 1 0 0 Z " fill="#4A3DEA" transform="translate(323,908)" data-index="17"></path>
<path d="M0 0 C5.46596801 -0.09760657 10.58624547 0.25327524 16 1 C16.66 1 17.32 1 18 1 C18 1.66 18 2.32 18 3 C19.80984375 2.98259766 19.80984375 2.98259766 21.65625 2.96484375 C23.27083177 2.95545665 24.88541524 2.94635744 26.5 2.9375 C27.68722656 2.92493164 27.68722656 2.92493164 28.8984375 2.91210938 C29.68476562 2.90888672 30.47109375 2.90566406 31.28125 2.90234375 C31.99345703 2.89710693 32.70566406 2.89187012 33.43945312 2.88647461 C36 3 36 3 39.77099609 3.49780273 C43.98984438 4.04981737 48.13240376 4.14469423 52.3828125 4.1328125 C53.15954315 4.13376923 53.9362738 4.13472595 54.73654175 4.13571167 C56.37188804 4.13638793 58.00723709 4.13457256 59.64257812 4.13037109 C62.09772043 4.12505902 64.55267612 4.13031233 67.0078125 4.13671875 C76.39297621 4.14068866 85.64443917 3.79065514 95 3 C97.39569339 2.85188549 99.79149597 2.70550146 102.1875 2.5625 C111.15247189 1.97618327 120.07194315 0.98987067 129 0 C128.67 0.66 128.34 1.32 128 2 C125.953125 2.48657227 125.953125 2.48657227 123.25 2.81640625 C122.24710938 2.94080078 121.24421875 3.06519531 120.2109375 3.19335938 C119.15132812 3.31517578 118.09171875 3.43699219 117 3.5625 C116.00226563 3.68818359 115.00453125 3.81386719 113.9765625 3.94335938 C98.22443325 5.83797946 82.52842334 6.16339784 66.68066406 6.13037109 C63.63601679 6.12501936 60.59151778 6.13034715 57.546875 6.13671875 C41.63049133 6.14340204 25.62954952 6.0683215 9.875 3.5625 C8.58529297 3.37977539 8.58529297 3.37977539 7.26953125 3.19335938 C5.16661598 2.87175664 3.08001734 2.44632816 1 2 C0.67 1.34 0.34 0.68 0 0 Z " fill="#912EEA" transform="translate(591,1066)" data-index="18"></path>
<path d="M0 0 C-0.33 0.66 -0.66 1.32 -1 2 C-1.92039062 1.95359375 -2.84078125 1.9071875 -3.7890625 1.859375 C-13.57775393 1.58026771 -25.12788981 1.4522271 -32.69921875 8.51953125 C-33.45847656 9.33808594 -34.21773437 10.15664063 -35 11 C-36.051875 11.66 -37.10375 12.32 -38.1875 13 C-41.31880487 15.22670568 -41.81847182 16.45541545 -43 20 C-44 21 -45 22 -46 23 C-47.04808041 24.97522846 -48.0520411 26.97481509 -49 29 C-49.33 29.66 -49.66 30.32 -50 31 C-50.66 31 -51.32 31 -52 31 C-52.33 31.99 -52.66 32.98 -53 34 C-52.21313776 24.03307828 -46.16384553 15.58927089 -39 9 C-27.53465699 -0.08407946 -14.28076485 -3.00647681 0 0 Z " fill="#E28428" transform="translate(592,454)" data-index="19"></path>
<path d="M0 0 C11.23459066 0.45257339 21.97923838 2.03060227 33 4.1875 C33.80183716 4.34173431 34.60367432 4.49596863 35.42980957 4.65487671 C45.60231246 6.61481537 55.71572827 8.72645679 65.75 11.3125 C67.16732422 11.67541138 67.16732422 11.67541138 68.61328125 12.0456543 C73.34758533 13.32725932 73.34758533 13.32725932 75 14 C75.495 14.99 75.495 14.99 76 16 C70.03870511 15.63908653 64.8070427 14.77342941 59.1875 12.75390625 C51.81421894 10.2127576 43.90250693 9.19999346 36.25 7.7890625 C33.47623364 7.27723656 30.70581484 6.75145634 27.9375 6.2109375 C19.91545924 4.65570362 11.941563 3.41695945 3.81640625 2.52734375 C2.88699219 2.35332031 1.95757813 2.17929688 1 2 C0.67 1.34 0.34 0.68 0 0 Z " fill="#17D1E5" transform="translate(701,177)" data-index="20"></path>
<path d="M0 0 C0.33 0 0.66 0 1 0 C0.99555878 0.66667191 0.99111755 1.33334381 0.98654175 2.0202179 C0.9414555 9.11249593 0.91179022 16.20473182 0.89013672 23.29711914 C0.88138113 25.92578541 0.86669734 28.55421725 0.84912109 31.18286133 C0.75087972 46.2802484 0.97544694 61.21603841 2.38278198 76.25764465 C2.9052284 82.0680716 2.99027531 87.24245445 2 93 C1.67 93 1.34 93 1 93 C-1.58170085 76.42212138 -1.15956095 59.45645022 -1.13037109 42.72729492 C-1.12497298 39.04406691 -1.13036963 35.36095889 -1.13671875 31.67773438 C-1.13605845 29.29687474 -1.13477828 26.91601517 -1.1328125 24.53515625 C-1.13483673 23.45363785 -1.13686096 22.37211945 -1.13894653 21.25782776 C-1.11731159 14.12724925 -0.69548609 7.09618886 0 0 Z " fill="#1153C0" transform="translate(228,579)" data-index="21"></path>
<path d="M0 0 C7.73719434 -0.05108129 15.47434451 -0.08589239 23.21166992 -0.10986328 C25.8389651 -0.11986588 28.4662493 -0.13347224 31.09350586 -0.15087891 C34.88918787 -0.17538113 38.68472155 -0.1865409 42.48046875 -0.1953125 C43.63830368 -0.20563507 44.79613861 -0.21595764 45.98905945 -0.22659302 C53.82782011 -0.22765011 61.28963277 0.59809699 69 2 C69 2.33 69 2.66 69 3 C68.07767578 2.98259766 68.07767578 2.98259766 67.13671875 2.96484375 C65.92435547 2.95130859 65.92435547 2.95130859 64.6875 2.9375 C63.88699219 2.92589844 63.08648438 2.91429687 62.26171875 2.90234375 C59.83138666 2.90342145 59.83138666 2.90342145 57 4 C54.375 4.125 54.375 4.125 52 4 C51.505 3.505 51.505 3.505 51 3 C49.52691671 2.84115104 48.04660288 2.74859611 46.56640625 2.68359375 C45.61894531 2.64161865 44.67148437 2.59964355 43.6953125 2.55639648 C42.66148437 2.51716064 41.62765625 2.4779248 40.5625 2.4375 C39.50675781 2.3950415 38.45101562 2.35258301 37.36328125 2.30883789 C25.24394901 1.86698724 13.12527696 1.90407218 1 2 C0.67 1.34 0.34 0.68 0 0 Z " fill="#0ADFFB" transform="translate(631,175)" data-index="22"></path>
<path d="M0 0 C2.97 0.33 5.94 0.66 9 1 C9 1.66 9 2.32 9 3 C10.28148926 3.16302612 10.28148926 3.16302612 11.58886719 3.3293457 C15.23246299 4.04570397 18.19122672 5.21464902 21.578125 6.73046875 C22.18960388 7.00337234 22.80108276 7.27627594 23.43109131 7.55744934 C24.72008955 8.13488369 26.00752689 8.71581382 27.29345703 9.30004883 C29.22647827 10.17683098 31.16538673 11.03936516 33.10546875 11.90039062 C39.66140134 14.83862284 45.96429243 17.96402883 52.03808594 21.8293457 C54.0913662 23.14965007 54.0913662 23.14965007 57 24 C57 24.66 57 25.32 57 26 C52.27280019 24.56729483 47.99532028 22.57851188 43.625 20.3125 C31.85893253 14.34019517 19.98771149 9.06396936 7.40649414 5.04052734 C2.21259722 3.31889584 2.21259722 3.31889584 0 0 Z " fill="#12B6D9" transform="translate(728,357)" data-index="23"></path>
<path d="M0 0 C0.66 0 1.32 0 2 0 C2.024759 4.48404564 2.04288799 8.96805481 2.05493164 13.45214844 C2.05995365 14.97689507 2.0667725 16.50163691 2.07543945 18.02636719 C2.08759849 20.22071519 2.09324968 22.4149994 2.09765625 24.609375 C2.10289307 25.92905273 2.10812988 27.24873047 2.11352539 28.60839844 C2 32 2 32 1.5057373 33.95983887 C0.98798723 36.0484599 0.84349628 37.88616376 0.79467773 40.03417969 C0.7647599 41.20494049 0.7647599 41.20494049 0.73423767 42.39935303 C0.70916893 43.6480014 0.70916893 43.6480014 0.68359375 44.921875 C0.66281265 45.78186096 0.64203156 46.64184692 0.62062073 47.52789307 C0.55536261 50.26851598 0.49635083 53.00923275 0.4375 55.75 C0.39429219 57.6106867 0.35067718 59.47136398 0.30664062 61.33203125 C0.19970558 65.88792523 0.09837149 70.4439134 0 75 C-0.33 75 -0.66 75 -1 75 C-1.02583296 68.01555188 -1.04306376 61.0311165 -1.05493164 54.04663086 C-1.05989087 51.68171733 -1.06666031 49.31680674 -1.07543945 46.9519043 C-1.13209568 31.27146083 -0.84842914 15.65879988 0 0 Z " fill="#F9713E" transform="translate(540,596)" data-index="24"></path>
<path d="M0 0 C1.32 0.33 2.64 0.66 4 1 C-4.53420141 6.3105468 -13.13538564 11.50863737 -21.75 16.6875 C-22.81468506 17.32888916 -23.87937012 17.97027832 -24.97631836 18.63110352 C-30.92458686 22.20154786 -36.90548608 25.6847779 -43 29 C-43 28.01 -43 27.02 -43 26 C-38.77777778 23 -38.77777778 23 -36 23 C-36 22.34 -36 21.68 -36 21 C-35.01 21 -34.02 21 -33 21 C-31.97545472 20.02516311 -30.97759235 19.02191643 -30 18 C-28.16796875 16.97265625 -28.16796875 16.97265625 -26.1875 16.0625 C-23.51986058 14.79242903 -21.09921433 13.45628789 -18.6875 11.75 C-16 10 -16 10 -13 10 C-12.34 8.68 -11.68 7.36 -11 6 C-10.01 6.33 -9.02 6.66 -8 7 C-8 6.34 -8 5.68 -8 5 C-5.35261084 3.5393715 -4.10551666 3 -1 3 C-0.67 2.01 -0.34 1.02 0 0 Z " fill="#EB2B61" transform="translate(740,708)" data-index="25"></path>
<path d="M0 0 C0.33 0 0.66 0 1 0 C4.38857897 17.89934859 0.59809735 35.5581156 -8.875 51.0703125 C-13.41233766 57.70616883 -13.41233766 57.70616883 -16 59 C-14.86800915 52.92841272 -13.7232397 50.22605657 -9 46 C-9 45.34 -9 44.68 -9 44 C-8.34 44 -7.68 44 -7 44 C-6.71253906 42.989375 -6.42507813 41.97875 -6.12890625 40.9375 C-5.42663709 38.47244245 -4.70400563 36.0170753 -3.96484375 33.5625 C-0.72541987 22.32921263 0.05979916 11.72063624 0 0 Z " fill="#31E7ED" transform="translate(970,335)" data-index="26"></path>
<path d="M0 0 C13.6465691 16.37588292 15.91851945 36.48639898 15 57 C14.67 57 14.34 57 14 57 C14 51.06 14 45.12 14 39 C13.34 39 12.68 39 12 39 C11.70609375 37.22109375 11.70609375 37.22109375 11.40625 35.40625 C9.68702838 25.84630577 7.39480386 17.59357711 2.64257812 9.078125 C0.73758746 5.65706425 0 4.03051298 0 0 Z " fill="#8036C6" transform="translate(947,853)" data-index="27"></path>
<path d="M0 0 C4.875 3.75 4.875 3.75 6 6 C7.97522846 7.04808041 9.97481509 8.0520411 12 9 C12 9.66 12 10.32 12 11 C12.59167969 11.19335938 13.18335938 11.38671875 13.79296875 11.5859375 C20.58991884 13.82571551 20.58991884 13.82571551 23.5 15.0625 C30.58564124 17.71961546 38.07455021 18.45476532 45.5625 19.125 C46.47580078 19.21136719 47.38910156 19.29773438 48.33007812 19.38671875 C50.55296584 19.59620555 52.77619349 19.80054684 55 20 C55 20.33 55 20.66 55 21 C35.2856439 21.90896109 18.17064362 19.14684384 2.8125 5.625 C1.53172102 4.4272137 0.25692909 3.22279028 -1 2 C-0.67 1.34 -0.34 0.68 0 0 Z " fill="#1BC5E2" transform="translate(828,412)" data-index="28"></path>
<path d="M0 0 C1 3 1 3 0.07543945 5.40087891 C-0.40707275 6.33335449 -0.88958496 7.26583008 -1.38671875 8.2265625 C-1.91330078 9.25910156 -2.43988281 10.29164063 -2.98242188 11.35546875 C-3.82643555 12.97388672 -3.82643555 12.97388672 -4.6875 14.625 C-5.77661786 16.74122189 -6.863888 18.85839584 -7.94921875 20.9765625 C-8.47273926 21.9972583 -8.99625977 23.0179541 -9.53564453 24.06958008 C-11.18853122 27.37728247 -12.71311079 30.72311531 -14.17602539 34.1184082 C-15.34910825 36.79720809 -16.66589764 39.39850039 -18 42 C-18.66 42 -19.32 42 -20 42 C-17.95237509 35.2777823 -15.30289137 29.01084912 -12.25 22.6875 C-11.81187988 21.77266846 -11.37375977 20.85783691 -10.92236328 19.9152832 C-7.60499867 13.06662821 -4.03676442 6.45614972 0 0 Z " fill="#037EDD" transform="translate(284,393)" data-index="29"></path>
<path d="M0 0 C18.14381829 5.14497103 35.67994217 11.54125874 53 19 C52.67 19.66 52.34 20.32 52 21 C51.28980713 20.71278076 50.57961426 20.42556152 49.84790039 20.12963867 C46.58722363 18.81279118 43.32488079 17.50011991 40.0625 16.1875 C38.94552734 15.73568359 37.82855469 15.28386719 36.67773438 14.81835938 C30.50684169 12.33914443 24.34273144 9.99858963 18 8 C17.18394287 7.73936768 16.36788574 7.47873535 15.52709961 7.21020508 C12.99895638 6.40539073 10.46865653 5.60778192 7.9375 4.8125 C6.6390918 4.40354492 6.6390918 4.40354492 5.31445312 3.98632812 C3.2098446 3.32355085 1.10502562 2.66145111 -1 2 C-0.67 1.34 -0.34 0.68 0 0 Z " fill="#20DDEA" transform="translate(778,192)" data-index="30"></path>
<path d="M0 0 C2.23270608 2.05212245 3.59229868 3.8635676 4.83203125 6.625 C5.15268555 7.32633057 5.47333984 8.02766113 5.80371094 8.75024414 C6.13661133 9.49266357 6.46951172 10.23508301 6.8125 11 C9.56648882 17.00483783 12.45344274 22.85994141 15.6875 28.625 C16.94886689 30.90747342 18.11082101 33.21713149 19.25 35.5625 C20.75927889 38.96550897 20.75927889 38.96550897 23 41 C24.6875 43.9375 24.6875 43.9375 26 47 C25.67 47.99 25.34 48.98 25 50 C18.04683442 38.35577044 11.62105571 26.53322452 5.75 14.3125 C5.17741455 13.12487061 4.6048291 11.93724121 4.01489258 10.71362305 C0 2.26973479 0 2.26973479 0 0 Z " fill="#3044E0" transform="translate(266,812)" data-index="31"></path>
<path d="M0 0 C0.99 0.33 1.98 0.66 3 1 C2.38705078 1.33620361 1.77410156 1.67240723 1.14257812 2.01879883 C-10.64582653 8.51145887 -22.15313272 15.13014183 -33.11328125 22.953125 C-36 25 -36 25 -38 26 C-36.70401211 23.10895008 -35.50703864 20.96981607 -33 19 C-29.8125 17.8125 -29.8125 17.8125 -27 17 C-27 16.34 -27 15.68 -27 15 C-26.36835938 14.6596875 -25.73671875 14.319375 -25.0859375 13.96875 C-18.87469341 10.60358029 -12.72026887 7.15102956 -6.59716797 3.62890625 C-2.18246397 1.09123198 -2.18246397 1.09123198 0 0 Z " fill="#06A6E8" transform="translate(532,374)" data-index="32"></path>
<path d="M0 0 C-1.70206624 2.1304585 -2.51037419 2.94440976 -5.27075195 3.2578125 C-6.58499146 3.19207031 -6.58499146 3.19207031 -7.92578125 3.125 C-14.07961406 2.95487594 -20.06382216 3.42529847 -26.1875 4 C-32.81899929 4.61533661 -39.33735849 5.12766738 -46 5 C-46 4.67 -46 4.34 -46 4 C-15.09519675 -0.11470514 -15.09519675 -0.11470514 0 0 Z " fill="#0EB5DA" transform="translate(631,175)" data-index="33"></path>
<path d="M0 0 C2 0 2 0 4.125 1.875 C6 4 6 4 6 6 C6.5259375 6.21527344 7.051875 6.43054688 7.59375 6.65234375 C10.93440775 8.52332901 13.6490558 11.03572248 16.5 13.5625 C22.08489672 18.45242678 27.82394494 22.95022707 33.8671875 27.2578125 C34.92292969 28.12019531 34.92292969 28.12019531 36 29 C36 29.66 36 30.32 36 31 C32.03334655 29.2846904 28.79761654 26.66492001 25.4375 24 C24.51312134 23.27067261 24.51312134 23.27067261 23.57006836 22.52661133 C18.66618423 18.61705732 14.01396404 14.50328533 9.421875 10.23046875 C7.26877692 8.24753487 5.06856374 6.36350865 2.8125 4.5 C1.884375 3.675 0.95625 2.85 0 2 C0 1.34 0 0.68 0 0 Z " fill="#5139DC" transform="translate(368,956)" data-index="34"></path>
<path d="M0 0 C0.66 0 1.32 0 2 0 C3.24172475 1.8047617 4.39067616 3.67346698 5.5 5.5625 C8.60192788 10.75679682 11.82238829 15.8469707 15.1875 20.875 C15.59097656 21.48029541 15.99445313 22.08559082 16.41015625 22.70922852 C19.19547863 26.86388729 22.07751392 30.94070317 25 35 C24.67 35.66 24.34 36.32 24 37 C17.54850359 29.12144448 11.84897844 20.89691557 6.375 12.3125 C5.74706543 11.33200684 5.11913086 10.35151367 4.47216797 9.34130859 C0 2.25551987 0 2.25551987 0 0 Z " fill="#3A42E1" transform="translate(292,862)" data-index="35"></path>
<path d="M0 0 C4.34391851 2.75200772 8.1337995 5.77702868 11.875 9.3125 C12.92897917 10.29503123 13.98366714 11.27680265 15.0390625 12.2578125 C15.54598633 12.72993164 16.05291016 13.20205078 16.57519531 13.68847656 C18.43123609 15.39695001 20.3353022 17.04524932 22.25 18.6875 C26.371616 22.25494914 30.19298305 26.10185765 34 30 C33.505 31.485 33.505 31.485 33 33 C32.59910156 32.5153125 32.19820312 32.030625 31.78515625 31.53125 C26.48972073 25.28719904 20.65316078 19.90592334 14.25 14.8125 C12 13 12 13 9.625 10.5625 C7.50372019 8.49172685 5.61982079 7.00470387 3.1875 5.375 C1.6096875 4.199375 1.6096875 4.199375 0 3 C0 2.01 0 1.02 0 0 Z " fill="#2DE9EE" transform="translate(921,267)" data-index="36"></path>
<path d="M0 0 C0.66 0.33 1.32 0.66 2 1 C-9.08267708 10.23556423 -22.06629475 15.690745 -36 19 C-36 18.34 -36 17.68 -36 17 C-33.04329782 15.99513105 -30.08438423 14.99693976 -27.125 14 C-26.28324219 13.71382813 -25.44148437 13.42765625 -24.57421875 13.1328125 C-23.76855469 12.86210937 -22.96289062 12.59140625 -22.1328125 12.3125 C-21.01737061 11.93544922 -21.01737061 11.93544922 -19.87939453 11.55078125 C-18 11 -18 11 -16 11 C-15.67 10.01 -15.34 9.02 -15 8 C-14.34 8.33 -13.68 8.66 -13 9 C-12.67 8.01 -12.34 7.02 -12 6 C-11.319375 5.938125 -10.63875 5.87625 -9.9375 5.8125 C-5.96821063 4.71461145 -3.21360445 2.50976025 0 0 Z " fill="#26DDEC" transform="translate(934,412)" data-index="37"></path>
<path d="M0 0 C-0.75023437 0.35191406 -1.50046875 0.70382812 -2.2734375 1.06640625 C-11.46555288 5.50038634 -20.0781453 10.38595983 -27 18 C-27.99 17.67 -28.98 17.34 -30 17 C-23.6066687 10.63613106 -9.70482109 -2.91144633 0 0 Z " fill="#7B53EC" transform="translate(855,822)" data-index="38"></path>
<path d="M0 0 C0 0.33 0 0.66 0 1 C-0.92232422 0.98259766 -0.92232422 0.98259766 -1.86328125 0.96484375 C-3.07564453 0.95130859 -3.07564453 0.95130859 -4.3125 0.9375 C-5.11300781 0.92589844 -5.91351562 0.91429687 -6.73828125 0.90234375 C-9.16861334 0.90342145 -9.16861334 0.90342145 -12 2 C-14.625 2.125 -14.625 2.125 -17 2 C-17.33 1.67 -17.66 1.34 -18 1 C-19.84891946 0.76636119 -21.70488031 0.58696365 -23.5625 0.4375 C-24.57441406 0.35371094 -25.58632813 0.26992187 -26.62890625 0.18359375 C-27.80259766 0.09271484 -27.80259766 0.09271484 -29 0 C-29 -0.33 -29 -0.66 -29 -1 C-19.15406912 -3.07282755 -9.80238034 -1.72079404 0 0 Z " fill="#13CFEA" transform="translate(700,177)" data-index="39"></path>
<path d="M0 0 C0.66 0.33 1.32 0.66 2 1 C-1.2061074 2.94120135 -4.4152736 4.87728944 -7.625 6.8125 C-8.52863281 7.35970703 -9.43226563 7.90691406 -10.36328125 8.47070312 C-14.83576947 11.16398983 -19.28000513 13.76545094 -24 16 C-24.33 15.34 -24.66 14.68 -25 14 C-18.375 10 -18.375 10 -15 10 C-15 9.34 -15 8.68 -15 8 C-12.48106145 4.59202431 -8.83271177 3.51986846 -5 2 C-4.071875 1.5875 -3.14375 1.175 -2.1875 0.75 C-1.465625 0.5025 -0.74375 0.255 0 0 Z " fill="#EE2964" transform="translate(794,677)" data-index="40"></path>
<path d="M0 0 C3.11364804 1.55682402 3.37244192 4.11888146 4.5625 7.3125 C4.99691406 8.46363281 5.43132812 9.61476563 5.87890625 10.80078125 C7 14 7 14 7.4921875 16.02734375 C8.22978718 18.89263483 9.40874242 21.52831544 10.5625 24.25 C11.01753906 25.32765625 11.47257812 26.4053125 11.94140625 27.515625 C12.29074219 28.33546875 12.64007813 29.1553125 13 30 C12.34 30.33 11.68 30.66 11 31 C0 6.92977528 0 6.92977528 0 0 Z " fill="#294BE3" transform="translate(252,775)" data-index="41"></path>
<path d="M0 0 C3.46268226 1.26159156 6.21258388 2.69666731 9.13671875 4.93359375 C9.87857422 5.50013672 10.62042969 6.06667969 11.38476562 6.65039062 C12.14466797 7.24013672 12.90457031 7.82988281 13.6875 8.4375 C14.84475586 9.31631836 14.84475586 9.31631836 16.02539062 10.21289062 C21.73985729 14.60978594 21.73985729 14.60978594 24 18 C20.10416594 16.64612859 17.39489312 14.90157655 14.25 12.25 C10.20649 8.91076502 6.07314558 5.98648117 1.6171875 3.2265625 C1.08351563 2.82179687 0.54984375 2.41703125 0 2 C0 1.34 0 0.68 0 0 Z " fill="#2CE7ED" transform="translate(895,248)" data-index="42"></path>
<path d="M0 0 C0.33 0 0.66 0 1 0 C1.36747285 4.33231148 1.71657694 8.66591884 2.0625 13 C2.16626953 14.22074219 2.27003906 15.44148437 2.37695312 16.69921875 C2.8706123 22.9976289 3.11349048 28.77068265 2 35 C1.67 35 1.34 35 1 35 C0.25265639 30.34785065 -0.11936092 25.90132058 -0.09765625 21.19140625 C-0.09443359 19.95068359 -0.09121094 18.70996094 -0.08789062 17.43164062 C-0.07951172 16.15482422 -0.07113281 14.87800781 -0.0625 13.5625 C-0.05798828 12.25861328 -0.05347656 10.95472656 -0.04882812 9.61132812 C-0.03709251 6.40750448 -0.02067363 3.20377637 0 0 Z " fill="#1259D9" transform="translate(228,637)" data-index="43"></path>
<path d="M0 0 C5.46596801 -0.09760657 10.58624547 0.25327524 16 1 C16.66 1 17.32 1 18 1 C18 1.66 18 2.32 18 3 C18.62648438 2.97679687 19.25296875 2.95359375 19.8984375 2.9296875 C20.71570313 2.91164063 21.53296875 2.89359375 22.375 2.875 C23.18710937 2.85179687 23.99921875 2.82859375 24.8359375 2.8046875 C27 3 27 3 29 5 C8.22149674 3.99799096 8.22149674 3.99799096 1 2 C0.67 1.34 0.34 0.68 0 0 Z " fill="#7127CF" transform="translate(591,1066)" data-index="44"></path>
<path d="M0 0 C5.9906889 -0.30846366 11.1097194 0.80585635 16.875 2.375 C17.74125 2.59671875 18.6075 2.8184375 19.5 3.046875 C24.24941955 4.31239432 24.24941955 4.31239432 26 5 C26.33 5.66 26.66 6.32 27 7 C21.00099702 6.63680358 15.75687207 5.76640323 10.11328125 3.69140625 C8.04625708 3.01513402 6.15633828 2.67904502 4 2.4375 C3.01 2.293125 2.02 2.14875 1 2 C0.67 1.34 0.34 0.68 0 0 Z " fill="#19E1F2" transform="translate(750,186)" data-index="45"></path>
<path d="M0 0 C7.8822202 0.51599184 15.34458305 2.0921453 23 4 C23 4.66 23 5.32 23 6 C15.28728953 4.86364454 7.62717033 3.61840635 0 2 C0 1.34 0 0.68 0 0 Z " fill="#061A24" transform="translate(733,180)" data-index="46"></path>
<path d="M0 0 C-1.44946105 3.33973757 -3.28172388 5.52304659 -5.875 8.0625 C-6.55304688 8.73410156 -7.23109375 9.40570313 -7.9296875 10.09765625 C-9.8707937 11.88127647 -11.8619601 13.46118653 -14 15 C-14.66 14.67 -15.32 14.34 -16 14 C-13.71643754 11.65861457 -11.42186626 9.32833018 -9.125 7 C-8.47402344 6.33226562 -7.82304687 5.66453125 -7.15234375 4.9765625 C-6.52714844 4.34492188 -5.90195312 3.71328125 -5.2578125 3.0625 C-4.6817627 2.47597656 -4.10571289 1.88945312 -3.51220703 1.28515625 C-2 0 -2 0 0 0 Z " fill="#021530" transform="translate(475,417)" data-index="47"></path>
<path d="M0 0 C-0.33 0.66 -0.66 1.32 -1 2 C-3.19921875 2.55859375 -3.19921875 2.55859375 -6 3 C-7.43279297 3.26490234 -7.43279297 3.26490234 -8.89453125 3.53515625 C-10.33892578 3.79619141 -10.33892578 3.79619141 -11.8125 4.0625 C-12.78832031 4.23910156 -13.76414062 4.41570312 -14.76953125 4.59765625 C-15.87361328 4.79681641 -15.87361328 4.79681641 -17 5 C-17 4.01 -17 3.02 -17 2 C-15.10787298 1.46585888 -13.21108364 0.94821671 -11.3125 0.4375 C-10.25675781 0.14746094 -9.20101562 -0.14257812 -8.11328125 -0.44140625 C-4.99304618 -1.00124767 -3.02306766 -0.84690764 0 0 Z " fill="#04162C" transform="translate(600,354)" data-index="48"></path>
<path d="M0 0 C0.77601563 0.14308594 1.55203125 0.28617187 2.3515625 0.43359375 C7.01193805 1.15709959 11.68163741 1.61057136 16.375 2.0625 C17.30183594 2.15337891 18.22867188 2.24425781 19.18359375 2.33789062 C21.45555904 2.56040269 23.72768866 2.78105499 26 3 C26 3.33 26 3.66 26 4 C22.79174438 4.05849554 19.58362767 4.09376162 16.375 4.125 C15.47136719 4.14175781 14.56773437 4.15851563 13.63671875 4.17578125 C8.67249848 4.21201643 4.65588093 3.96444146 0 2 C0 1.34 0 0.68 0 0 Z " fill="#1FD1EA" transform="translate(857,429)" data-index="49"></path>
<path d="M0 0 C-2.31730807 2.31730807 -2.98784834 2.32351682 -6.140625 2.6328125 C-7.37619141 2.75849609 -7.37619141 2.75849609 -8.63671875 2.88671875 C-9.93029297 3.00466797 -9.93029297 3.00466797 -11.25 3.125 C-12.09691406 3.21136719 -12.94382812 3.29773438 -13.81640625 3.38671875 C-18.22810981 3.81896964 -22.56147578 4.10153487 -27 4 C-27 3.67 -27 3.34 -27 3 C-23.62837275 2.2952194 -20.25234385 1.61430899 -16.875 0.9375 C-15.92367187 0.73833984 -14.97234375 0.53917969 -13.9921875 0.33398438 C-9.03250061 -0.64762032 -4.99375407 -1.33671195 0 0 Z " fill="#06C8F5" transform="translate(628,347)" data-index="50"></path>
<path d="M0 0 C0.99 0.33 1.98 0.66 3 1 C1.1265988 2.73092571 -0.74866282 4.45976163 -2.625 6.1875 C-3.14707031 6.67025391 -3.66914063 7.15300781 -4.20703125 7.65039062 C-7.71861293 10.88017871 -11.31299651 13.97178542 -15 17 C-12.16143135 10.29065593 -6.05771216 3.96666089 0 0 Z " fill="#089EED" transform="translate(474,414)" data-index="51"></path>
<path d="M0 0 C5.16071738 1.35808352 9.25707809 3.84968501 13.73046875 6.66015625 C16.03714501 8.12903566 16.03714501 8.12903566 19 9 C19 9.66 19 10.32 19 11 C14.51947835 9.65651525 10.71711181 7.86858876 6.6875 5.5 C5.63949219 4.8915625 4.59148438 4.283125 3.51171875 3.65625 C1 2 1 2 0 0 Z " fill="#15C4E4" transform="translate(766,372)" data-index="52"></path>
<path d="M0 0 C0.99 0.33 1.98 0.66 3 1 C-1.29 5.29 -5.58 9.58 -10 14 C-10.66 13.67 -11.32 13.34 -12 13 C-8.04 8.71 -4.08 4.42 0 0 Z " fill="#04A4EF" transform="translate(373,280)" data-index="53"></path>
<path d="M0 0 C0.33 0 0.66 0 1 0 C2.23076923 5.41538462 2.23076923 5.41538462 1.0625 8.375 C0.711875 8.91125 0.36125 9.4475 0 10 C-0.66 10 -1.32 10 -2 10 C-1.938125 10.9075 -1.87625 11.815 -1.8125 12.75 C-2.01672076 16.28982642 -2.64551835 17.44931155 -5 20 C-4.35346673 13.04976736 -2.13972752 6.61822697 0 0 Z " fill="#066AD0" transform="translate(249,474)" data-index="54"></path>
<path d="M0 0 C0.33 0 0.66 0 1 0 C1.5326514 6.258654 -0.18150494 10.45108785 -3 16 C-3.66 16 -4.32 16 -5 16 C-4.54548816 14.26982492 -4.08621143 12.54090123 -3.625 10.8125 C-3.36976563 9.84957031 -3.11453125 8.88664062 -2.8515625 7.89453125 C-2.05233704 5.17789793 -1.0968638 2.60862825 0 0 Z " fill="#0573D9" transform="translate(257,451)" data-index="55"></path>
<path d="M0 0 C0.66 0.99 1.32 1.98 2 3 C0.33333333 6.33333333 -1.33333333 9.66666667 -3 13 C-3.66 13 -4.32 13 -5 13 C-5.33 13.99 -5.66 14.98 -6 16 C-5.52412884 9.97229862 -2.80277043 5.23321711 0 0 Z " fill="#D57E21" transform="translate(545,472)" data-index="56"></path>
<path d="M0 0 C4.01984912 6.02977369 4.25729264 12.92445235 4 20 C3.67 20 3.34 20 3 20 C2.87625 18.948125 2.7525 17.89625 2.625 16.8125 C2.18559892 13.15292888 2.18559892 13.15292888 0.9375 10.5625 C-0.38654146 6.94345335 -0.13023559 3.84195003 0 0 Z " fill="#25C5CB" transform="translate(968,321)" data-index="57"></path>
<path d="M0 0 C0.99 0.33 1.98 0.66 3 1 C-0.63 6.28 -4.26 11.56 -8 17 C-8.33 16.34 -8.66 15.68 -9 15 C-7.890625 12.79296875 -7.890625 12.79296875 -6.25 10.1875 C-5.71890625 9.33542969 -5.1878125 8.48335938 -4.640625 7.60546875 C-4.09921875 6.74566406 -3.5578125 5.88585937 -3 5 C-1.99627849 3.3355719 -0.99514698 1.66956888 0 0 Z " fill="#0C93E7" transform="translate(437,455)" data-index="58"></path>
<path d="M0 0 C2 1 2 1 3.0859375 3.16796875 C4.08968317 6.27786451 4.41024596 9.05539698 4.625 12.3125 C4.69976562 13.38113281 4.77453125 14.44976563 4.8515625 15.55078125 C4.90054688 16.35902344 4.94953125 17.16726563 5 18 C2.68622795 14.52934193 2.11015527 11.32959845 1.375 7.3125 C1.2409375 6.61060547 1.106875 5.90871094 0.96875 5.18554688 C0.6397283 3.45818294 0.31904688 1.72923409 0 0 Z " fill="#1A4AD3" transform="translate(237,722)" data-index="59"></path>
<path d="M0 0 C6.93 2.97 6.93 2.97 14 6 C14 6.99 14 7.98 14 9 C9.05 6.69 4.1 4.38 -1 2 C-0.67 1.34 -0.34 0.68 0 0 Z " fill="#20E3EC" transform="translate(838,215)" data-index="60"></path>
<path d="M0 0 C-6.07841789 2.84964058 -10.37579029 4.72805471 -17 3 C-14.20261218 1.4932252 -11.59677568 0.51775885 -8.5 -0.1875 C-7.7471875 -0.36667969 -6.994375 -0.54585937 -6.21875 -0.73046875 C-3.85166621 -1.01801942 -2.25455985 -0.72248395 0 0 Z " fill="#09A8D2" transform="translate(568,184)" data-index="61"></path>
<path d="M0 0 C0.66 0.66 1.32 1.32 2 2 C0.21190303 3.17213045 -1.58059125 4.33755526 -3.375 5.5 C-4.37273438 6.1496875 -5.37046875 6.799375 -6.3984375 7.46875 C-9 9 -9 9 -11 9 C-10.34 7.68 -9.68 6.36 -9 5 C-7.68 5 -6.36 5 -5 5 C-5 4.34 -5 3.68 -5 3 C-2.5 1.375 -2.5 1.375 0 0 Z " fill="#EF2B65" transform="translate(767,692)" data-index="62"></path>
<path d="M0 0 C1.82850425 3.11800911 2.06577285 3.69854111 1.25 7.4375 C0.23550505 10.32881061 -0.80351473 13.17971329 -2 16 C-3.3805087 12.23331402 -2.59568159 9.55210827 -1.5625 5.75 C-1.27503906 4.67234375 -0.98757812 3.5946875 -0.69140625 2.484375 C-0.46324219 1.66453125 -0.23507813 0.8446875 0 0 Z " fill="#0667D4" transform="translate(240,507)" data-index="63"></path>
<path d="M0 0 C-2.26807204 1.0067004 -4.53907754 2.00551766 -6.8125 3 C-7.77639648 3.42925781 -7.77639648 3.42925781 -8.75976562 3.8671875 C-11.67756469 5.13711041 -13.78265714 6 -17 6 C-15.57296618 3.14593237 -13.99224974 3.0823031 -11 2 C-10.33871094 1.72671875 -9.67742188 1.4534375 -8.99609375 1.171875 C-8.29613281 0.88828125 -7.59617187 0.6046875 -6.875 0.3125 C-6.21242188 0.04050781 -5.54984375 -0.23148438 -4.8671875 -0.51171875 C-3 -1 -3 -1 0 0 Z " fill="#9B31E1" transform="translate(827,1036)" data-index="64"></path>
<path d="M0 0 C3.22269618 3.79817765 5.74520378 7.57391854 8 12 C7.67 12.66 7.34 13.32 7 14 C3.6985981 11.19380839 1.94330317 7.81959588 0 4 C0 2.68 0 1.36 0 0 Z " fill="#8740D6" transform="translate(947,853)" data-index="65"></path>
<path d="M0 0 C4.69564393 3.31457218 7.72469104 7.36279281 11 12 C10.01 12 9.02 12 8 12 C5.95703125 9.8828125 5.95703125 9.8828125 3.8125 7.125 C3.09707031 6.22007812 2.38164063 5.31515625 1.64453125 4.3828125 C0 2 0 2 0 0 Z " fill="#8946DC" transform="translate(936,840)" data-index="66"></path>
<path d="M0 0 C0.66 0.66 1.32 1.32 2 2 C0.71186658 2.83878455 -0.58063256 3.67086783 -1.875 4.5 C-2.59429688 4.9640625 -3.31359375 5.428125 -4.0546875 5.90625 C-6 7 -6 7 -8 7 C-8 6.34 -8 5.68 -8 5 C-7.34 5 -6.68 5 -6 5 C-6 4.34 -6 3.68 -6 3 C-4.02 2.01 -2.04 1.02 0 0 Z " fill="#EF2962" transform="translate(752,701)" data-index="67"></path>
<path d="M0 0 C0.33 0.99 0.66 1.98 1 3 C-2.3 5.31 -5.6 7.62 -9 10 C-9 9.01 -9 8.02 -9 7 C-8.195625 6.731875 -7.39125 6.46375 -6.5625 6.1875 C-5.716875 5.795625 -4.87125 5.40375 -4 5 C-3.67 4.01 -3.34 3.02 -3 2 C-2.01 1.34 -1.02 0.68 0 0 Z " fill="#EC2865" transform="translate(824,657)" data-index="68"></path>

<path d="M0 0 C0.33 0.99 0.66 1.98 1 3 C-0.25942386 4.19959375 -1.53295286 5.38439443 -2.8125 6.5625 C-3.87404297 7.55443359 -3.87404297 7.55443359 -4.95703125 8.56640625 C-5.63121094 9.03949219 -6.30539062 9.51257813 -7 10 C-7.99 9.67 -8.98 9.34 -10 9 C-6.7 6.03 -3.4 3.06 0 0 Z " fill="#764CE6" transform="translate(835,830)" data-index="70"></path>
<path d="M0 0 C0.66 0.66 1.32 1.32 2 2 C0.3811004 3.03048037 -1.24532489 4.04914678 -2.875 5.0625 C-3.77992188 5.63097656 -4.68484375 6.19945312 -5.6171875 6.78515625 C-6.40351562 7.18605469 -7.18984375 7.58695313 -8 8 C-8.66 7.67 -9.32 7.34 -10 7 C-6.7 4.69 -3.4 2.38 0 0 Z " fill="#EA245F" transform="translate(811,666)" data-index="71"></path>
<path d="M0 0 C4.67105792 1.55701931 8.08705685 4.08447373 12 7 C11.01 7.33 10.02 7.66 9 8 C6.73828125 6.85546875 6.73828125 6.85546875 4.3125 5.1875 C3.50425781 4.64480469 2.69601562 4.10210937 1.86328125 3.54296875 C1.24839844 3.03378906 0.63351562 2.52460938 0 2 C0 1.34 0 0.68 0 0 Z " fill="#2BDEE4" transform="translate(895,248)" data-index="72"></path>
<path d="M0 0 C2.97 0.33 5.94 0.66 9 1 C9 1.66 9 2.32 9 3 C9.66 3.33 10.32 3.66 11 4 C9.54054712 3.91291331 8.08234132 3.80473093 6.625 3.6875 C5.81289063 3.62949219 5.00078125 3.57148438 4.1640625 3.51171875 C2 3 2 3 0 0 Z " fill="#14C3E5" transform="translate(728,357)" data-index="73"></path>
<path d="M0 0 C3.2626876 3.08632611 6.02235218 5.93483504 8 10 C7.67 10.66 7.34 11.32 7 12 C5.82455195 10.56967163 4.65989738 9.13046758 3.5 7.6875 C2.8503125 6.88699219 2.200625 6.08648438 1.53125 5.26171875 C0 3 0 3 0 0 Z " fill="#4144E9" transform="translate(309,887)" data-index="74"></path>
<path d="M0 0 C0.66 0.33 1.32 0.66 2 1 C-0.31 3.64 -2.62 6.28 -5 9 C-5.99 8.67 -6.98 8.34 -8 8 C-5.36 5.36 -2.72 2.72 0 0 Z " fill="#038CD4" transform="translate(364,288)" data-index="75"></path>
<path d="M0 0 C0.99 0.33 1.98 0.66 3 1 C4.1875 4.0625 4.1875 4.0625 5 7 C4.34 7.66 3.68 8.32 3 9 C0 3.375 0 3.375 0 0 Z " fill="#E13E4A" transform="translate(540,767)" data-index="76"></path>
<path d="M0 0 C-1.98 1.32 -3.96 2.64 -6 4 C-7.32 3.34 -8.64 2.68 -10 2 C-8.71211992 1.46987262 -7.41953322 0.9511671 -6.125 0.4375 C-5.40570312 0.14746094 -4.68640625 -0.14257812 -3.9453125 -0.44140625 C-2 -1 -2 -1 0 0 Z " fill="#693DCD" transform="translate(744,887)" data-index="77"></path>
<path d="M0 0 C0.66 0.33 1.32 0.66 2 1 C0.35 3.64 -1.3 6.28 -3 9 C-3.33 7.68 -3.66 6.36 -4 5 C-2.0625 2.25 -2.0625 2.25 0 0 Z " fill="#0295EA" transform="translate(305,359)" data-index="78"></path>
<path d="M0 0 C0.66 0 1.32 0 2 0 C0.55746343 3.36591866 -1.33264727 5.51047079 -4 8 C-4.66 7.67 -5.32 7.34 -6 7 C-5.04882866 5.8274869 -4.08882991 4.66212985 -3.125 3.5 C-2.59132813 2.8503125 -2.05765625 2.200625 -1.5078125 1.53125 C-0.76144531 0.77328125 -0.76144531 0.77328125 0 0 Z " fill="#01ABF9" transform="translate(367,286)" data-index="79"></path>
</svg>